<svg viewBox="0 0 109 109" xmlns="http://www.w3.org/2000/svg" xmlns:xlink="http://www.w3.org/1999/xlink">
  <defs>
    <path id="a" d="M0 .028h108.972v108.969H0z"/>
  </defs>
  <g fill="none" fill-rule="evenodd">
    <g>
      <mask id="b" fill="#fff">
        <use xlink:href="#a"/>
      </mask>
      <path d="M108.972 54.513c0 30.09-24.394 54.484-54.486 54.484S0 84.604 0 54.513 24.394.028 54.486.028s54.486 24.394 54.486 54.485" fill="#FF93DE" mask="url(#b)"/>
    </g>
    <path d="M54.5 106C26.057 106 3 82.943 3 54.5S26.057 3 54.5 3 106 26.057 106 54.5 82.943 106 54.5 106Z" fill="#96EBF7"/>
    <path d="M78.109 40.774c1.348-.134 2.926.348 3.867 1.294 1.006 1.011.24 2.24-1.066 2.42-1.512.207-2.987-.329-4.124-1.25a.568.568 0 0 1-.233-.434c-.595-.955.454-1.921 1.556-2.03m-11.113 9.46c.296.405.565.831.803 1.274a11.448 11.448 0 0 1 3.029-3.284 11.81 11.81 0 0 1 1.864-1.112 12.19 12.19 0 0 1 5.267-1.184c3.302 0 6.283 1.296 8.41 3.376.396-2.714.424-5.454-.073-8.153-1.133-6.144-6.44-12.29-13.63-11.588-6.747.658-10.874 5.942-14.512 10.865.452.032.891.124 1.293.284 1.354.54 1.18 1.957.061 2.621-1.186.705-2.611.825-3.945.525-.601.743-1.228 1.463-1.895 2.154a12.302 12.302 0 0 1 3.695-.566c3.996 0 7.522 1.896 9.633 4.787" fill="#F58EE1"/>
    <path d="M24.803 42.08c.442-1.67 1.231-3.389 2.382-4.697.972-1.104 3.07-1.674 3.826.013.381.852-.15 1.82-.43 2.62l-1.084 3.112-.346.993c-.045.234-.086.47-.122.706-.238 1.555.056 3.805-1.639 4.636-1.558.764-2.648-.776-2.873-2.127-.29-1.74-.163-3.555.286-5.256m3.8 12.398a1.583 1.583 0 0 1-1.113 1.334c-.779.296-1.59-.243-1.82-1.013-.335-.652-.208-1.478.462-1.902.714-.452 1.734-.217 2.196.48.109.163.177.341.212.524.06.179.085.373.063.577m11.18 15.057c.05-.188.114-.37.191-.545.118-.302.275-.595.48-.867a.751.751 0 0 1 .251-.215c.937-.967 2.37-1.408 3.725-.88 1.905.743 2.825 2.977 1.888 4.807a3.488 3.488 0 0 1-5.006 1.358c-1.193-.765-1.73-2.112-1.55-3.406a.731.731 0 0 1 .021-.252m20.85 1.44c.115 2.218-.01 8.32 3.251 8.6 3.914.336 3.735-5.158 3.523-7.608-.08-.93 1.373-.922 1.453 0 .293 3.39-.128 9.301-4.976 9.057-4.49-.226-4.539-6.872-4.704-10.049-.048-.933 1.405-.927 1.453 0M21.641 58.9c2.162 7.29 5.99 14.055 10.651 20.04 4.542 5.83 10.586 11.044 18.17 12.092 7.384 1.021 14.233-2.739 19.107-8.035 2.59-2.813 4.717-6.011 6.684-9.275a141.364 141.364 0 0 0 2.592-4.473 11.622 11.622 0 0 1-11.422-6.301c-.26.455-.553.89-.872 1.305a11.614 11.614 0 0 1-9.223 4.54 11.616 11.616 0 0 1-9.29-4.624 11.58 11.58 0 0 1-1.392-2.385c-.186-.431-.344-.877-.478-1.333l-.022-.072a11.561 11.561 0 0 1 3.857-12.18 11.621 11.621 0 0 1 3.463-1.933c-2.59-6.042-7.317-11.083-13.29-13.918-3.297-1.564-7.107-2.673-10.765-1.89-3.338.714-6.025 3.217-7.53 6.201-1.715 3.407-2.104 7.345-2.027 11.108.078 3.766.717 7.524 1.787 11.133" fill="#F58EE1"/>
    <path d="M72.647 47.792c5.524 1.198 9.295 6.314 8.367 11.814.857-.006 1.714-.009 2.572-.014 1.963-.01 3.926-.017 5.89-.02.11-.612.17-1.24.17-1.88 0-2.994-1.257-5.71-3.297-7.704-2.131-2.084-5.117-3.382-8.425-3.382-1.899 0-3.691.428-5.277 1.186M59.584 59.733c2.028-.044 4.056-.084 6.085-.12a13.769 13.769 0 0 1 1.704-9.011c-2.11-2.94-5.635-4.87-9.63-4.87-1.292 0-2.533.205-3.695.577-.063.02-.127.04-.19.062a11.816 11.816 0 0 0-3.485 1.877c5.47 1.065 9.564 5.899 9.211 11.485" fill="#F3E6CE"/>
    <path d="M83.858 60.358c-.831.004-1.663.007-2.494.013l-13.793.325s.17.898.351 1.67c.213.638.478 1.263.802 1.868 2.008 3.063 5.574 5.103 9.643 5.103.347 0 .69-.017 1.029-.046 4.667-.4 8.521-3.486 9.846-7.625.138-.432.248-.876.329-1.33-1.904.004-3.808.01-5.713.022" fill="#1CB7B3"/>
    <path d="M50.094 48.645a11.39 11.39 0 0 0-4.15 8.816c0 1.08.152 2.124.43 3.113l.02.071 12.53-.413c.337-5.635-3.587-10.512-8.83-11.587M66.777 60.021l14.15-.35c.923-5.786-2.829-11.168-8.325-12.428a11.743 11.743 0 0 0-4.878 4.634 11.667 11.667 0 0 0-.8-1.344 14.746 14.746 0 0 0-1.7 9.338l.28 1.425c.25 1.012.61 2 1.071 2.947.32-.417.613-.855.875-1.313.156.308.328.607.51.898a13.296 13.296 0 0 1-.823-2.01c-.185-.83-.36-1.797-.36-1.797M76.752 43.773c1.126.975 2.586 1.542 4.084 1.323 1.294-.19 2.053-1.49 1.056-2.561-.932-1-2.495-1.51-3.83-1.37-1.092.116-2.131 1.14-1.541 2.149.003.158.07.319.23.459M59.28 43.522c1.1-.738 1.272-2.315-.06-2.915a3.838 3.838 0 0 0-1.271-.316 4.673 4.673 0 0 0-2.752.646c-.946.58-1.482 2.01-.545 2.727.067.15.191.277.393.342.117.037.235.07.354.1 1.313.333 2.714.2 3.882-.584" fill="#001619"/>
    <path d="M65.874 60.63c-1.977.036-3.955.079-5.933.124l-12.746.427a11.808 11.808 0 0 0 1.835 3.765c2.082 2.844 5.389 4.683 9.115 4.683 3.688 0 6.965-1.803 9.05-4.598a15.293 15.293 0 0 1-1.048-2.967l-.273-1.435Z" fill="#1CB7B3"/>
    <path d="M28.578 50.204c1.749-.81 1.446-3.003 1.691-4.52.037-.23.08-.46.126-.688l.357-.968 1.12-3.034c.287-.78.837-1.724.443-2.554-.78-1.646-2.946-1.09-3.949-.013-1.188 1.275-2.002 2.95-2.458 4.58-.464 1.657-.594 3.428-.295 5.124.232 1.317 1.357 2.818 2.965 2.073" fill="#F3E6CE"/>
    <path d="M64.32 81.048c4.972.25 5.403-5.797 5.103-9.264-.082-.943-1.573-.951-1.49 0 .217 2.506.401 8.126-3.612 7.782-3.344-.286-3.216-6.528-3.334-8.797-.05-.948-1.54-.954-1.49 0 .169 3.25.22 10.048 4.824 10.28" fill="#001619"/>
    <path d="M40.605 73.601a3.506 3.506 0 0 0 5.034-1.369c.943-1.842.017-4.093-1.899-4.84-1.363-.533-2.804-.089-3.746.885a.762.762 0 0 0-.253.217 3.629 3.629 0 0 0-.483.873 3.642 3.642 0 0 0-.192.549.732.732 0 0 0-.02.254c-.183 1.303.358 2.66 1.559 3.431" fill="#FF86A5"/>
    <path d="M29.341 53.298c-.444-.863-1.425-1.154-2.111-.594-.645.525-.767 1.549-.444 2.356.22.955 1 1.621 1.749 1.255.548-.198 1.005-.86 1.07-1.653a2.119 2.119 0 0 0-.06-.714 2.094 2.094 0 0 0-.204-.65" fill="#F3E6CE"/>
  </g>
</svg>
